<?xml version="1.0" encoding="utf-8"?>
<!-- Generator: Adobe Illustrator 13.0.0, SVG Export Plug-In . SVG Version: 6.00 Build 14948)  -->
<!DOCTYPE svg PUBLIC "-//W3C//DTD SVG 1.1//EN" "http://www.w3.org/Graphics/SVG/1.1/DTD/svg11.dtd">
<svg version="1.1" id="Capa_1" xmlns="http://www.w3.org/2000/svg" xmlns:xlink="http://www.w3.org/1999/xlink" x="0px" y="0px"
	 width="415px" height="137.5px" viewBox="0 0 415 137.5" enable-background="new 0 0 415 137.5" xml:space="preserve">
<g>
	<path fill-rule="evenodd" clip-rule="evenodd" d="M158.148,38.644c0.792,0,1.44-0.216,2.016-0.576
		c0.504-0.36,0.936-0.792,1.224-1.368c0.288-0.504,0.504-1.152,0.648-1.8c0.072-0.648,0.144-1.224,0.144-1.728
		c0-0.576-0.072-1.152-0.144-1.8c-0.072-0.648-0.288-1.224-0.576-1.8c-0.288-0.576-0.72-1.008-1.296-1.368
		c-0.504-0.36-1.152-0.576-1.944-0.576h-7.344v-4.32h8.424c1.008,0.072,1.872,0.36,2.664,1.008c0.72,0.576,1.368,1.368,1.944,2.304
		c0.504,0.936,0.936,2.016,1.224,3.096c0.288,1.152,0.432,2.304,0.432,3.456c0,1.08-0.216,2.232-0.504,3.456
		c-0.288,1.152-0.72,2.16-1.296,3.096c-0.576,1.008-1.296,1.728-2.088,2.376c-0.864,0.576-1.8,0.864-2.808,0.864h-7.992v-4.32
		H158.148z M150.876,27.628h-7.2c-0.864,0-1.584,0.216-2.088,0.576c-0.504,0.36-0.936,0.792-1.224,1.368
		c-0.288,0.576-0.504,1.152-0.576,1.8c-0.144,0.648-0.216,1.224-0.216,1.8c0,0.504,0.072,1.08,0.144,1.728
		c0.144,0.648,0.36,1.296,0.648,1.8c0.288,0.576,0.648,1.008,1.224,1.368c0.504,0.36,1.152,0.576,2.016,0.576h7.272v4.32h-8.424
		c-1.008-0.072-1.872-0.36-2.592-1.008c-0.792-0.576-1.44-1.368-2.016-2.304c-0.504-0.936-0.936-2.016-1.224-3.096
		c-0.288-1.152-0.36-2.304-0.36-3.384c0-1.152,0.144-2.304,0.432-3.456c0.288-1.224,0.792-2.232,1.368-3.168
		c0.576-1.008,1.224-1.728,2.088-2.376c0.792-0.576,1.728-0.864,2.736-0.864h7.992V27.628z"/>
	<path fill-rule="evenodd" clip-rule="evenodd" d="M168.732,27.628v-4.464c8.136,0,16.416,0,24.552,0
		c7.416,1.44,6.12,12.168-1.368,12.096l6.768,7.632h-5.688l-6.624-7.632H172.62v7.704h-3.888V31.012c8.28,0,16.704,0,24.984,0
		c1.44-0.576,1.44-2.808,0-3.312L168.732,27.628z"/>
	<path fill-rule="evenodd" clip-rule="evenodd" d="M202.716,42.892V23.164h3.888l-0.072,8.208c3.096,0,6.12,0,9.216,0
		c2.736,0,3.024,0.072,5.112-2.16l5.904-6.048h5.328l-7.416,7.92c-2.52,2.664-2.232,2.16,0.288,4.68l6.984,7.128h-5.256
		c-1.872-1.944-3.672-3.6-5.544-5.328c-2.376-2.376-2.664-2.448-5.76-2.448h-8.784v7.776H202.716z"/>
	<path fill-rule="evenodd" clip-rule="evenodd" d="M293.724,38.5c0.792,0,1.44-0.144,2.016-0.504
		c0.504-0.432,0.936-0.864,1.224-1.44c0.288-0.504,0.504-1.08,0.648-1.728c0.072-0.648,0.144-1.296,0.144-1.8
		c0-0.576-0.072-1.152-0.144-1.8c-0.144-0.648-0.288-1.224-0.648-1.8c-0.288-0.504-0.648-1.008-1.224-1.368
		c-0.504-0.36-1.152-0.576-2.016-0.576h-7.272v-4.32h8.424c1.008,0.072,1.872,0.432,2.664,1.008c0.72,0.648,1.368,1.44,1.944,2.376
		c0.504,0.936,0.936,1.944,1.224,3.096s0.432,2.232,0.432,3.384c-0.072,1.152-0.216,2.304-0.504,3.456
		c-0.288,1.152-0.72,2.232-1.296,3.168c-0.648,0.936-1.296,1.728-2.16,2.304c-0.792,0.576-1.728,0.936-2.736,0.936h-7.992V38.5
		H293.724z M286.452,27.484h-7.272c-0.792,0-1.512,0.216-2.016,0.576s-0.936,0.864-1.224,1.368c-0.288,0.576-0.504,1.152-0.648,1.8
		c-0.072,0.648-0.144,1.224-0.144,1.8c0,0.504,0.072,1.152,0.144,1.8c0.144,0.648,0.288,1.224,0.648,1.728
		c0.288,0.576,0.648,1.008,1.152,1.44c0.576,0.36,1.224,0.504,2.088,0.504h7.272v4.392h-8.424c-1.008-0.072-1.872-0.432-2.664-1.008
		c-0.72-0.648-1.368-1.44-1.944-2.376c-0.504-0.936-0.936-1.944-1.224-3.096c-0.288-1.152-0.432-2.304-0.36-3.384
		c0-1.152,0.144-2.304,0.432-3.456c0.288-1.152,0.72-2.232,1.296-3.168c0.648-0.936,1.296-1.728,2.16-2.304
		c0.792-0.648,1.728-0.936,2.736-0.936h7.992V27.484z"/>
	<path fill-rule="evenodd" clip-rule="evenodd" d="M241.308,38.644l0.072-15.48h-3.528v12.672c0.144,7.632-0.864,7.128,6.696,7.128
		h15.768c7.848,0,6.696,0.288,6.84-7.56v-12.24h-3.528v15.48h-9.216v-15.48h-3.528v15.48H241.308z"/>
	<path fill-rule="evenodd" clip-rule="evenodd" d="M304.956,27.628v-4.464c8.136,0,16.344,0,24.552,0
		c7.344,1.44,6.12,12.168-1.44,12.096l6.768,7.632h-5.688l-6.552-7.632h-13.752l-0.072,7.704h-3.816V31.012
		c8.28,0,16.632,0,24.912,0c1.44-0.576,1.44-2.808,0-3.312L304.956,27.628z"/>
	<path fill-rule="evenodd" clip-rule="evenodd" d="M338.58,42.892l-0.072-19.728h3.96l-0.072,8.208c3.096,0,6.12,0,9.144,0
		c2.808,0,3.168,0.072,5.256-2.16l5.832-6.048h5.4l-7.488,7.92c-2.448,2.664-2.16,2.16,0.288,4.68l6.984,7.128h-5.256
		c-1.8-1.944-3.672-3.6-5.472-5.328c-2.448-2.376-2.664-2.448-5.904-2.448h-8.784v7.776H338.58z"/>
	<path fill-rule="evenodd" clip-rule="evenodd" d="M401.076,23.092c-8.784,0-16.92,0-25.704,0c-3.384,0-3.888,2.16-3.96,4.176v7.992
		c8.28,0,16.632,0,24.912,0c1.224,0,1.368,0.504,1.368,1.224v1.944h-26.208v4.536h29.52c0-2.88,0-5.4,0-8.28
		c0.072-2.016-0.72-3.528-3.168-3.528H375.3c0-0.72,0-1.368,0-2.016c0-1.08,0.504-1.44,1.368-1.44h24.408V23.092z"/>
	<path fill-rule="evenodd" clip-rule="evenodd" d="M103.5,42.892c0-5.112,0-10.224,0-15.336c0-3.24,0-4.248,3.672-4.248h25.488
		v4.464c-7.776,0-15.264,0-22.968,0c-1.728,0-2.088,0.36-2.088,2.088v1.44h25.056v4.032h-25.128v7.56H103.5z"/>
</g>
<polygon fill-rule="evenodd" clip-rule="evenodd" stroke="#000000" stroke-width="0.5" points="25.668,12.076 89.964,12.076 
	82.188,75.58 17.892,75.58 "/>
<g>
	<path fill-rule="evenodd" clip-rule="evenodd" fill="#F58220" d="M16.812,4.732c19.728,0,39.384,0,59.112,0
		c-9.936,8.856-23.904,16.344-46.08,21.6c12.744,0,25.488,0,38.232,0C58.5,37.78,42.444,43.18,25.596,48.652
		c13.464,0,20.952,0,34.416,0C40.788,64.924,23.364,71.62,7.956,73.996C11.052,50.884,13.788,27.844,16.812,4.732z"/>
	<path fill="#FFFFFF" d="M6.964,73.863c3.095-23.103,5.831-46.142,8.855-69.261l0,0l0.114-0.871h0.877c19.729,0,39.384,0,59.112,0
		l0,0h2.625l-1.959,1.746c-8.883,7.92-20.93,14.734-38.923,19.854l0,0c10.136,0,20.273,0,30.411,0l0,0h2.14l-1.374,1.642
		C60.15,37.335,46.496,42.754,31.841,47.651l0,0c9.859,0,16.933,0,28.171,0l0,0h2.73l-2.084,1.764
		C41.314,65.794,23.687,72.586,8.108,74.984l0,0l-1.321,0.203L6.964,73.863L6.964,73.863z M9.125,72.793
		c14.339-2.432,30.405-8.7,48.118-23.142l0,0c-11.784,0-19.134,0-31.647,0l0,0L25.287,47.7c16.005-5.184,31.125-10.32,40.567-20.369
		l0,0c-12.004,0-24.007,0-36.011,0l0,0l-0.231-1.973c20.578-4.879,33.955-11.657,43.609-19.627l0,0c-18.529,0-37,0-55.533,0l0,0
		C14.77,28.099,12.11,50.41,9.125,72.793L9.125,72.793z"/>
</g>
<path d="M103.5,60.244l1.728-0.144c0.144,0.648,0.288,1.296,0.648,1.728c0.288,0.432,0.792,0.864,1.44,1.08
	c0.648,0.288,1.368,0.432,2.16,0.432c0.72,0,1.368-0.072,1.944-0.288c0.504-0.216,0.936-0.504,1.224-0.864
	c0.288-0.432,0.432-0.792,0.432-1.224c0-0.504-0.144-0.864-0.432-1.224c-0.288-0.288-0.72-0.576-1.296-0.792
	c-0.36-0.216-1.224-0.432-2.52-0.72c-1.296-0.36-2.232-0.648-2.808-0.936c-0.648-0.36-1.152-0.792-1.512-1.296
	c-0.288-0.504-0.504-1.152-0.504-1.8c0-0.72,0.216-1.368,0.648-2.016c0.36-0.648,1.008-1.08,1.8-1.44
	c0.792-0.288,1.656-0.504,2.592-0.504c1.08,0,2.016,0.216,2.808,0.504c0.792,0.36,1.44,0.864,1.872,1.512
	c0.432,0.72,0.648,1.44,0.72,2.304l-1.8,0.144c-0.144-0.936-0.432-1.584-1.008-2.088c-0.576-0.432-1.368-0.648-2.52-0.648
	c-1.152,0-1.944,0.144-2.52,0.576c-0.504,0.432-0.72,0.936-0.72,1.512c0,0.576,0.144,0.936,0.504,1.296
	c0.36,0.36,1.368,0.648,2.88,1.008c1.512,0.36,2.592,0.648,3.168,0.936c0.864,0.36,1.44,0.864,1.872,1.44
	c0.36,0.576,0.576,1.296,0.576,2.016c0,0.792-0.216,1.512-0.648,2.16c-0.432,0.72-1.08,1.224-1.872,1.584
	c-0.864,0.36-1.728,0.576-2.808,0.576c-1.296,0-2.376-0.216-3.24-0.576c-0.864-0.36-1.584-0.936-2.088-1.728
	C103.788,62.044,103.5,61.18,103.5,60.244z"/>
<path d="M121.428,54.196L121.428,54.196c1.44,0,2.592,0.504,3.528,1.44c0.864,0.936,1.368,2.232,1.368,3.888
	c0,1.296-0.216,2.376-0.648,3.096c-0.36,0.792-0.936,1.368-1.728,1.8s-1.584,0.648-2.521,0.648l0,0v-1.44l0,0
	c0.864,0,1.584-0.36,2.16-1.008c0.576-0.648,0.864-1.656,0.864-3.024c0-1.296-0.288-2.304-0.864-2.952
	c-0.576-0.648-1.296-0.936-2.16-0.936l0,0V54.196z M116.604,59.668c0-1.944,0.504-3.384,1.584-4.32
	c0.864-0.72,1.944-1.152,3.24-1.152v1.512c-0.864,0-1.584,0.288-2.16,0.936c-0.576,0.648-0.864,1.656-0.864,3.024
	c0,1.296,0.288,2.304,0.864,2.952c0.576,0.648,1.296,1.008,2.16,1.008v1.44c-1.44,0-2.592-0.504-3.528-1.44
	C117.036,62.764,116.604,61.396,116.604,59.668z"/>
<path d="M128.772,64.852v-9h-1.584v-1.368h1.584v-1.152c0-0.648,0.072-1.224,0.216-1.512c0.144-0.504,0.432-0.864,0.864-1.152
	s1.008-0.432,1.8-0.432c0.504,0,1.008,0.072,1.656,0.216l-0.288,1.512c-0.36-0.072-0.72-0.072-1.008-0.072
	c-0.576,0-0.936,0.072-1.152,0.288c-0.216,0.288-0.36,0.72-0.36,1.296v1.008h2.016v1.368H130.5v9H128.772z"/>
<path d="M137.772,63.268l0.216,1.512c-0.504,0.144-0.936,0.144-1.296,0.144c-0.648,0-1.152-0.072-1.512-0.288
	c-0.36-0.216-0.576-0.432-0.72-0.792c-0.144-0.288-0.216-1.008-0.216-2.088v-5.904h-1.296v-1.368h1.296v-2.592l1.728-1.08v3.672h1.8
	v1.368h-1.8V61.9c0,0.504,0.072,0.792,0.072,0.936c0.072,0.144,0.216,0.288,0.36,0.36c0.144,0.072,0.288,0.144,0.576,0.144
	C137.196,63.34,137.412,63.268,137.772,63.268z"/>
<path d="M141.372,64.852l-3.168-10.368h1.8l1.656,5.976l0.648,2.232c0-0.144,0.216-0.864,0.504-2.16l1.656-6.048h1.8l1.584,5.976
	l0.504,2.016l0.576-2.016l1.8-5.976h1.728l-3.24,10.368h-1.872l-1.656-6.264l-0.36-1.728l-2.088,7.992H141.372z"/>
<path d="M160.668,63.556c-0.648,0.504-1.296,0.936-1.872,1.152c-0.288,0.144-0.576,0.216-0.936,0.288v-1.368
	c0.432-0.072,0.864-0.216,1.224-0.36c0.504-0.36,0.936-0.72,1.152-1.224c0.216-0.432,0.288-1.008,0.288-1.8v-0.648
	c-0.576,0.288-1.512,0.504-2.664,0.648v-1.44c1.152-0.144,2.088-0.36,2.664-0.576c0-0.216,0-0.36,0-0.432
	c0-0.72-0.144-1.224-0.504-1.512c-0.432-0.432-1.08-0.576-1.944-0.576c-0.072,0-0.144,0-0.216,0v-1.512c0.144,0,0.288,0,0.432,0
	c0.864,0,1.584,0.144,2.16,0.36c0.576,0.216,0.936,0.432,1.224,0.792c0.288,0.288,0.432,0.648,0.576,1.152
	c0,0.288,0.072,0.864,0.072,1.656v2.304c0,1.656,0,2.664,0.072,3.096c0.072,0.432,0.216,0.864,0.504,1.296h-1.872
	C160.884,64.492,160.74,64.06,160.668,63.556z M157.86,64.996c-0.288,0-0.648,0.072-1.008,0.072c-1.152,0-2.016-0.288-2.592-0.864
	c-0.648-0.504-0.936-1.224-0.936-2.088c0-0.504,0.072-1.008,0.36-1.44c0.216-0.432,0.504-0.72,0.864-1.008
	c0.432-0.216,0.792-0.432,1.296-0.576c0.36-0.072,0.864-0.144,1.584-0.216c0.144-0.072,0.288-0.072,0.432-0.072v1.44l-0.216,0.072
	c-0.72,0.072-1.224,0.216-1.512,0.288c-0.288,0.144-0.504,0.36-0.72,0.576c-0.144,0.288-0.216,0.576-0.216,0.864
	c0,0.432,0.144,0.864,0.504,1.152c0.36,0.36,0.864,0.504,1.584,0.504c0.216,0,0.36,0,0.576-0.072V64.996L157.86,64.996z
	 M157.86,55.708c-0.72,0-1.296,0.144-1.656,0.432c-0.36,0.288-0.648,0.792-0.864,1.512l-1.728-0.216
	c0.144-0.792,0.432-1.368,0.792-1.8c0.36-0.432,0.864-0.792,1.512-1.08c0.576-0.144,1.224-0.288,1.944-0.36V55.708z"/>
<path d="M164.988,64.852V54.484h1.584v1.512c0.432-0.72,0.792-1.224,1.152-1.44c0.36-0.216,0.72-0.36,1.152-0.36
	c0.576,0,1.152,0.216,1.8,0.576l-0.648,1.656c-0.432-0.288-0.864-0.36-1.296-0.36c-0.36,0-0.72,0.072-1.008,0.288
	c-0.288,0.288-0.504,0.576-0.648,1.008c-0.216,0.576-0.288,1.296-0.288,2.016v5.472H164.988z"/>
<path d="M178.812,61.468l1.8,0.216c-0.288,1.08-0.792,1.944-1.584,2.52c-0.792,0.576-1.8,0.864-2.952,0.864h-0.144v-1.44
	c0,0,0.072,0,0.144,0c0.648,0,1.152-0.216,1.656-0.504C178.164,62.764,178.524,62.26,178.812,61.468L178.812,61.468z
	 M175.932,54.196L175.932,54.196c1.44,0,2.52,0.504,3.384,1.44c0.936,0.936,1.368,2.304,1.368,3.96c0,0.144,0,0.288,0,0.504h-4.752
	v-1.44h2.88c-0.072-0.864-0.288-1.512-0.648-2.016c-0.576-0.648-1.296-1.008-2.16-1.008h-0.072V54.196z M175.932,65.068
	c-1.44-0.072-2.664-0.504-3.456-1.44c-0.936-0.936-1.368-2.232-1.368-3.888c0-1.728,0.432-3.096,1.368-4.104
	c0.864-0.936,2.016-1.44,3.456-1.44v1.44c-0.792,0.072-1.44,0.288-2.016,0.864c-0.504,0.504-0.864,1.224-0.864,2.16h2.88v1.44
	h-3.024c0.072,1.152,0.432,2.016,1.008,2.592c0.504,0.576,1.224,0.864,2.016,0.936V65.068z"/>
<path d="M192.78,54.196c0.072,0,0.144,0,0.216,0c0.864,0,1.656,0.216,2.304,0.72c0.72,0.432,1.224,1.08,1.584,1.944
	c0.288,0.792,0.504,1.728,0.504,2.664c0,1.08-0.216,2.016-0.576,2.88c-0.36,0.864-0.936,1.512-1.656,1.944
	c-0.72,0.504-1.512,0.72-2.304,0.72h-0.072v-1.44c0.792,0,1.44-0.36,1.944-1.008c0.576-0.648,0.864-1.656,0.864-3.096
	c0-1.296-0.288-2.304-0.792-2.952c-0.576-0.648-1.224-1.008-1.944-1.008h-0.072V54.196z M188.388,68.812V54.484h1.584v1.296
	c0.36-0.504,0.792-0.936,1.296-1.152c0.432-0.216,0.936-0.36,1.512-0.432v1.368c-0.72,0.072-1.368,0.36-1.944,1.08
	s-0.864,1.728-0.864,3.024c0,1.368,0.288,2.376,0.792,2.952c0.576,0.648,1.224,1.008,1.944,1.008h0.072v1.44
	c-0.576,0-1.08-0.144-1.512-0.36c-0.432-0.288-0.864-0.576-1.152-0.936v5.04H188.388z"/>
<path d="M206.244,63.556c-0.648,0.504-1.224,0.936-1.872,1.152c-0.288,0.144-0.576,0.216-0.936,0.288v-1.368
	c0.432-0.072,0.864-0.216,1.224-0.36c0.504-0.36,0.936-0.72,1.152-1.224c0.216-0.432,0.288-1.008,0.288-1.8v-0.648
	c-0.576,0.288-1.512,0.504-2.664,0.648v-1.44c1.224-0.144,2.088-0.36,2.664-0.576c0-0.216,0-0.36,0-0.432
	c0-0.72-0.144-1.224-0.504-1.512c-0.432-0.432-1.08-0.576-1.944-0.576c-0.072,0-0.144,0-0.216,0v-1.512c0.144,0,0.288,0,0.432,0
	c0.936,0,1.584,0.144,2.16,0.36c0.576,0.216,0.936,0.432,1.224,0.792c0.288,0.288,0.432,0.648,0.576,1.152
	c0.072,0.288,0.072,0.864,0.072,1.656v2.304c0,1.656,0,2.664,0.144,3.096c0.072,0.432,0.216,0.864,0.432,1.296h-1.872
	C206.46,64.492,206.316,64.06,206.244,63.556z M203.436,64.996c-0.288,0-0.648,0.072-1.008,0.072c-1.152,0-2.016-0.288-2.592-0.864
	c-0.648-0.504-0.936-1.224-0.936-2.088c0-0.504,0.144-1.008,0.36-1.44c0.216-0.432,0.504-0.72,0.864-1.008
	c0.432-0.216,0.864-0.432,1.296-0.576c0.36-0.072,0.864-0.144,1.584-0.216c0.144-0.072,0.288-0.072,0.432-0.072v1.44l-0.216,0.072
	c-0.72,0.072-1.224,0.216-1.512,0.288c-0.288,0.144-0.504,0.36-0.72,0.576c-0.144,0.288-0.216,0.576-0.216,0.864
	c0,0.432,0.216,0.864,0.504,1.152c0.36,0.36,0.936,0.504,1.584,0.504c0.216,0,0.432,0,0.576-0.072V64.996L203.436,64.996z
	 M203.436,55.708c-0.72,0-1.296,0.144-1.656,0.432c-0.36,0.288-0.648,0.792-0.864,1.512l-1.728-0.216
	c0.144-0.792,0.432-1.368,0.792-1.8c0.36-0.432,0.864-0.792,1.584-1.08c0.504-0.144,1.152-0.288,1.872-0.36V55.708z"/>
<path d="M210.636,64.852V54.484h1.512v1.512c0.432-0.72,0.792-1.224,1.152-1.44c0.36-0.216,0.72-0.36,1.152-0.36
	c0.576,0,1.152,0.216,1.8,0.576l-0.648,1.656c-0.432-0.288-0.864-0.36-1.296-0.36c-0.36,0-0.72,0.072-1.008,0.288
	c-0.288,0.288-0.504,0.576-0.648,1.008c-0.216,0.576-0.288,1.296-0.288,2.016v5.472H210.636z"/>
<path d="M223.956,63.556c-0.648,0.504-1.224,0.936-1.872,1.152c-0.288,0.144-0.576,0.216-0.936,0.288v-1.368
	c0.432-0.072,0.864-0.216,1.224-0.36c0.504-0.36,0.936-0.72,1.152-1.224c0.216-0.432,0.288-1.008,0.288-1.8v-0.648
	c-0.576,0.288-1.512,0.504-2.664,0.648v-1.44c1.224-0.144,2.088-0.36,2.664-0.576c0-0.216,0-0.36,0-0.432
	c0-0.72-0.144-1.224-0.504-1.512c-0.432-0.432-1.08-0.576-1.944-0.576c-0.072,0-0.144,0-0.216,0v-1.512c0.144,0,0.288,0,0.432,0
	c0.936,0,1.584,0.144,2.16,0.36c0.576,0.216,0.936,0.432,1.224,0.792c0.288,0.288,0.432,0.648,0.576,1.152
	c0.072,0.288,0.072,0.864,0.072,1.656v2.304c0,1.656,0,2.664,0.144,3.096c0.072,0.432,0.216,0.864,0.432,1.296h-1.872
	C224.172,64.492,224.028,64.06,223.956,63.556z M221.148,64.996c-0.288,0-0.648,0.072-1.008,0.072c-1.152,0-1.944-0.288-2.52-0.864
	c-0.648-0.504-0.936-1.224-0.936-2.088c0-0.504,0.144-1.008,0.36-1.44c0.216-0.432,0.504-0.72,0.864-1.008
	c0.432-0.216,0.792-0.432,1.224-0.576c0.36-0.072,0.864-0.144,1.584-0.216c0.144-0.072,0.288-0.072,0.432-0.072v1.44l-0.216,0.072
	c-0.72,0.072-1.224,0.216-1.512,0.288c-0.288,0.144-0.504,0.36-0.72,0.576c-0.144,0.288-0.216,0.576-0.216,0.864
	c0,0.432,0.216,0.864,0.504,1.152c0.36,0.36,0.936,0.504,1.584,0.504c0.216,0,0.432,0,0.576-0.072V64.996L221.148,64.996z
	 M221.148,55.708c-0.72,0-1.296,0.144-1.656,0.432c-0.36,0.288-0.648,0.792-0.864,1.512l-1.656-0.216
	c0.144-0.792,0.432-1.368,0.792-1.8c0.36-0.432,0.792-0.792,1.512-1.08c0.504-0.144,1.152-0.288,1.872-0.36V55.708z"/>
<path d="M234.036,64.852V50.524h2.88l3.384,10.152c0.288,0.936,0.504,1.584,0.648,2.088c0.216-0.504,0.432-1.296,0.792-2.304
	l3.456-9.936h2.52v14.328h-1.8V52.828l-4.176,12.024h-1.728l-4.104-12.24v12.24H234.036z"/>
<path d="M250.524,52.54v-2.016h1.8v2.016H250.524L250.524,52.54z M250.524,64.852V54.484h1.8v10.368H250.524z"/>
<path d="M261.756,61.036l1.728,0.216c-0.216,1.152-0.648,2.088-1.44,2.808c-0.792,0.648-1.728,1.008-2.88,1.008
	c-1.44,0-2.52-0.504-3.384-1.368c-0.864-0.936-1.296-2.304-1.296-4.032c0-1.08,0.144-2.088,0.504-2.952
	c0.432-0.792,0.936-1.44,1.728-1.872c0.72-0.432,1.584-0.648,2.448-0.648c1.152,0,2.088,0.288,2.808,0.864
	c0.72,0.576,1.152,1.368,1.368,2.448l-1.728,0.288c-0.144-0.72-0.432-1.224-0.864-1.584c-0.432-0.36-0.936-0.576-1.512-0.576
	c-0.864,0-1.584,0.36-2.16,1.008c-0.504,0.576-0.792,1.584-0.792,2.952c0,1.44,0.216,2.448,0.792,3.096
	c0.504,0.576,1.224,0.936,2.088,0.936c0.648,0,1.224-0.216,1.728-0.648C261.324,62.548,261.612,61.9,261.756,61.036z"/>
<path d="M264.996,64.852V54.484h1.584v1.512c0.36-0.72,0.72-1.224,1.08-1.44c0.36-0.216,0.72-0.36,1.152-0.36
	c0.576,0,1.152,0.216,1.8,0.576l-0.576,1.656c-0.432-0.288-0.864-0.36-1.296-0.36c-0.432,0-0.72,0.072-1.08,0.288
	c-0.288,0.288-0.504,0.576-0.648,1.008c-0.216,0.576-0.288,1.296-0.288,2.016v5.472H264.996z"/>
<path d="M275.868,54.196L275.868,54.196c1.44,0,2.592,0.504,3.456,1.44c0.936,0.936,1.368,2.232,1.368,3.888
	c0,1.296-0.144,2.376-0.576,3.096c-0.432,0.792-1.008,1.368-1.728,1.8c-0.792,0.432-1.584,0.648-2.52,0.648l0,0v-1.44l0,0
	c0.864,0,1.584-0.36,2.16-1.008c0.576-0.648,0.864-1.656,0.864-3.024c0-1.296-0.288-2.304-0.864-2.952
	c-0.576-0.648-1.296-0.936-2.16-0.936l0,0V54.196z M270.972,59.668c0-1.944,0.576-3.384,1.656-4.32
	c0.864-0.72,1.944-1.152,3.24-1.152v1.512c-0.864,0-1.584,0.288-2.16,0.936c-0.648,0.648-0.936,1.656-0.936,3.024
	c0,1.296,0.288,2.304,0.936,2.952c0.576,0.648,1.296,1.008,2.16,1.008v1.44c-1.44,0-2.664-0.504-3.528-1.44
	C271.476,62.764,270.972,61.396,270.972,59.668z"/>
<path d="M287.172,54.196c0.072,0,0.144,0,0.216,0c0.864,0,1.656,0.216,2.376,0.72c0.648,0.432,1.152,1.08,1.512,1.944
	c0.36,0.792,0.504,1.728,0.504,2.664c0,1.08-0.216,2.016-0.576,2.88c-0.36,0.864-0.936,1.512-1.656,1.944
	c-0.72,0.504-1.512,0.72-2.304,0.72h-0.072v-1.44c0.792,0,1.44-0.36,1.944-1.008c0.576-0.648,0.864-1.656,0.864-3.096
	c0-1.296-0.288-2.304-0.792-2.952c-0.576-0.648-1.224-1.008-1.944-1.008h-0.072V54.196z M282.78,68.812V54.484h1.584v1.296
	c0.36-0.504,0.792-0.936,1.296-1.152c0.432-0.216,0.936-0.36,1.512-0.432v1.368c-0.72,0.072-1.368,0.36-1.944,1.08
	s-0.864,1.728-0.864,3.024c0,1.368,0.288,2.376,0.792,2.952c0.576,0.648,1.224,1.008,2.016,1.008l0,0v1.44
	c-0.576,0-1.08-0.144-1.512-0.36c-0.432-0.288-0.792-0.576-1.152-0.936v5.04H282.78z"/>
<path d="M293.868,64.852V54.484h1.584v1.512c0.432-0.72,0.792-1.224,1.152-1.44c0.288-0.216,0.72-0.36,1.08-0.36
	c0.648,0,1.224,0.216,1.8,0.576l-0.576,1.656c-0.432-0.288-0.864-0.36-1.296-0.36c-0.36,0-0.72,0.072-1.008,0.288
	c-0.36,0.288-0.576,0.576-0.648,1.008c-0.216,0.576-0.288,1.296-0.288,2.016v5.472H293.868z"/>
<path d="M304.74,54.196L304.74,54.196c1.44,0,2.592,0.504,3.528,1.44s1.368,2.232,1.368,3.888c0,1.296-0.216,2.376-0.648,3.096
	c-0.36,0.792-0.936,1.368-1.728,1.8c-0.72,0.432-1.584,0.648-2.52,0.648l0,0v-1.44l0,0c0.936,0,1.656-0.36,2.232-1.008
	c0.576-0.648,0.864-1.656,0.864-3.024c0-1.296-0.288-2.304-0.864-2.952c-0.648-0.648-1.368-0.936-2.232-0.936l0,0V54.196z
	 M299.916,59.668c0-1.944,0.504-3.384,1.584-4.32c0.864-0.72,2.016-1.152,3.24-1.152v1.512c-0.864,0-1.584,0.288-2.16,0.936
	c-0.576,0.648-0.864,1.656-0.864,3.024c0,1.296,0.288,2.304,0.864,2.952c0.576,0.648,1.296,1.008,2.16,1.008v1.44
	c-1.44,0-2.592-0.504-3.456-1.44C300.348,62.764,299.916,61.396,299.916,59.668z"/>
<path d="M318.42,61.036l1.728,0.216c-0.144,1.152-0.648,2.088-1.44,2.808c-0.792,0.648-1.728,1.008-2.88,1.008
	c-1.368,0-2.52-0.504-3.384-1.368c-0.864-0.936-1.296-2.304-1.296-4.032c0-1.08,0.216-2.088,0.576-2.952
	c0.36-0.792,0.936-1.44,1.656-1.872c0.792-0.432,1.584-0.648,2.52-0.648c1.08,0,2.016,0.288,2.736,0.864
	c0.72,0.576,1.152,1.368,1.368,2.448l-1.728,0.288c-0.144-0.72-0.432-1.224-0.864-1.584c-0.36-0.36-0.864-0.576-1.44-0.576
	c-0.936,0-1.656,0.36-2.16,1.008c-0.576,0.576-0.864,1.584-0.864,2.952c0,1.44,0.288,2.448,0.792,3.096
	c0.576,0.576,1.224,0.936,2.088,0.936c0.72,0,1.296-0.216,1.728-0.648C318.06,62.548,318.348,61.9,318.42,61.036z"/>
<path d="M328.788,61.468l1.8,0.216c-0.288,1.08-0.792,1.944-1.584,2.52c-0.792,0.576-1.728,0.864-2.952,0.864h-0.144v-1.44
	c0.072,0,0.072,0,0.144,0c0.648,0,1.224-0.216,1.656-0.504C328.14,62.764,328.5,62.26,328.788,61.468L328.788,61.468z
	 M325.908,54.196L325.908,54.196c1.44,0,2.52,0.504,3.456,1.44c0.864,0.936,1.296,2.304,1.296,3.96c0,0.144,0,0.288,0,0.504h-4.752
	v-1.44h2.88c-0.072-0.864-0.288-1.512-0.648-2.016c-0.576-0.648-1.296-1.008-2.16-1.008h-0.072V54.196z M325.908,65.068
	c-1.44-0.072-2.592-0.504-3.456-1.44c-0.936-0.936-1.368-2.232-1.368-3.888c0-1.728,0.432-3.096,1.368-4.104
	c0.864-0.936,2.016-1.44,3.456-1.44v1.44c-0.792,0.072-1.44,0.288-2.016,0.864c-0.504,0.504-0.792,1.224-0.864,2.16h2.88v1.44
	h-3.024c0.072,1.152,0.432,2.016,1.008,2.592c0.504,0.576,1.224,0.864,2.016,0.936V65.068z"/>
<path d="M332.1,61.756l1.728-0.288c0.144,0.648,0.36,1.224,0.864,1.584c0.432,0.36,1.008,0.576,1.872,0.576
	c0.792,0,1.368-0.216,1.728-0.504c0.432-0.36,0.648-0.72,0.648-1.152c0-0.432-0.216-0.72-0.576-0.936
	c-0.216-0.144-0.792-0.36-1.8-0.576c-1.224-0.36-2.16-0.648-2.664-0.864c-0.504-0.216-0.864-0.576-1.152-1.008
	c-0.216-0.432-0.36-0.864-0.36-1.368c0-0.504,0.144-0.936,0.36-1.296c0.144-0.432,0.432-0.72,0.864-1.008
	c0.216-0.144,0.648-0.36,1.08-0.504c0.504-0.144,1.008-0.216,1.512-0.216c0.792,0,1.512,0.144,2.16,0.36
	c0.576,0.216,1.08,0.576,1.368,0.936c0.288,0.432,0.504,0.936,0.576,1.656l-1.728,0.216c-0.072-0.504-0.288-0.936-0.648-1.224
	c-0.36-0.36-0.936-0.504-1.584-0.504c-0.792,0-1.368,0.144-1.728,0.432c-0.36,0.288-0.504,0.576-0.504,0.936
	c0,0.216,0.072,0.432,0.216,0.576c0.144,0.216,0.36,0.36,0.648,0.504c0.216,0.072,0.72,0.216,1.584,0.432
	c1.224,0.36,2.088,0.648,2.592,0.864c0.504,0.144,0.864,0.504,1.152,0.864c0.288,0.432,0.432,0.936,0.432,1.512
	c0,0.576-0.216,1.152-0.504,1.656c-0.36,0.504-0.864,0.936-1.512,1.224c-0.648,0.288-1.368,0.432-2.16,0.432
	c-1.368,0-2.376-0.288-3.096-0.864C332.748,63.628,332.316,62.836,332.1,61.756z"/>
<path d="M349.596,63.556c-0.648,0.504-1.296,0.936-1.872,1.152c-0.36,0.144-0.648,0.216-0.936,0.288v-1.368
	c0.432-0.072,0.792-0.216,1.224-0.36c0.504-0.36,0.864-0.72,1.152-1.224c0.144-0.432,0.288-1.008,0.288-1.8v-0.648
	c-0.648,0.288-1.512,0.504-2.664,0.648v-1.44c1.152-0.144,2.016-0.36,2.664-0.576c0-0.216,0-0.36,0-0.432
	c0-0.72-0.216-1.224-0.504-1.512c-0.432-0.432-1.152-0.576-2.016-0.576c-0.072,0-0.144,0-0.144,0v-1.512c0.144,0,0.288,0,0.432,0
	c0.864,0,1.584,0.144,2.16,0.36c0.504,0.216,0.936,0.432,1.224,0.792c0.216,0.288,0.432,0.648,0.504,1.152
	c0.072,0.288,0.072,0.864,0.072,1.656v2.304c0,1.656,0.072,2.664,0.144,3.096c0.072,0.432,0.216,0.864,0.432,1.296h-1.8
	C349.74,64.492,349.596,64.06,349.596,63.556z M346.788,64.996c-0.36,0-0.72,0.072-1.008,0.072c-1.152,0-2.016-0.288-2.664-0.864
	c-0.576-0.504-0.936-1.224-0.936-2.088c0-0.504,0.144-1.008,0.36-1.44c0.216-0.432,0.576-0.72,0.936-1.008
	c0.36-0.216,0.792-0.432,1.224-0.576c0.36-0.072,0.864-0.144,1.584-0.216c0.144-0.072,0.288-0.072,0.504-0.072v1.44l-0.216,0.072
	c-0.72,0.072-1.224,0.216-1.512,0.288c-0.36,0.144-0.576,0.36-0.72,0.576c-0.144,0.288-0.288,0.576-0.288,0.864
	c0,0.432,0.216,0.864,0.576,1.152c0.36,0.36,0.864,0.504,1.512,0.504c0.216,0,0.432,0,0.648-0.072V64.996L346.788,64.996z
	 M346.788,55.708c-0.792,0-1.296,0.144-1.656,0.432c-0.432,0.288-0.72,0.792-0.936,1.512l-1.656-0.216
	c0.144-0.792,0.36-1.368,0.72-1.8c0.36-0.432,0.936-0.792,1.584-1.08c0.576-0.144,1.224-0.288,1.944-0.36V55.708z"/>
<path d="M360.684,64.852v-1.368c-0.648,1.008-1.584,1.512-2.808,1.584v-1.44h0.072c0.72,0,1.368-0.36,1.944-0.936
	c0.504-0.648,0.792-1.584,0.792-2.88c0-1.44-0.288-2.448-0.792-3.168c-0.576-0.648-1.224-0.936-2.016-0.936v-1.512
	c0.576,0.072,1.008,0.216,1.44,0.432c0.504,0.216,0.936,0.576,1.224,1.008v-5.112h1.728v14.328H360.684z M357.876,65.068
	c0,0-0.072,0-0.144,0c-0.792,0-1.584-0.216-2.232-0.72c-0.72-0.432-1.224-1.08-1.656-1.872c-0.36-0.864-0.576-1.8-0.576-2.808
	c0-1.08,0.216-2.016,0.576-2.808c0.288-0.864,0.864-1.512,1.512-1.944c0.72-0.504,1.44-0.72,2.304-0.72c0.072,0,0.144,0,0.216,0
	v1.512l0,0c-0.792,0-1.44,0.288-2.016,0.936c-0.504,0.648-0.792,1.656-0.792,3.024c0,1.296,0.288,2.304,0.864,2.952
	c0.576,0.648,1.224,1.008,1.944,1.008V65.068z"/>
<path d="M369.252,54.196L369.252,54.196c1.44,0,2.592,0.504,3.528,1.44c0.864,0.936,1.368,2.232,1.368,3.888
	c0,1.296-0.216,2.376-0.648,3.096c-0.36,0.792-0.936,1.368-1.728,1.8s-1.584,0.648-2.52,0.648l0,0v-1.44l0,0
	c0.864,0,1.584-0.36,2.16-1.008c0.576-0.648,0.864-1.656,0.864-3.024c0-1.296-0.288-2.304-0.864-2.952
	c-0.576-0.648-1.296-0.936-2.16-0.936l0,0V54.196z M364.428,59.668c0-1.944,0.504-3.384,1.584-4.32
	c0.864-0.72,1.944-1.152,3.24-1.152v1.512c-0.864,0-1.584,0.288-2.16,0.936c-0.576,0.648-0.864,1.656-0.864,3.024
	c0,1.296,0.288,2.304,0.864,2.952c0.576,0.648,1.296,1.008,2.16,1.008v1.44c-1.44,0-2.592-0.504-3.528-1.44
	C364.86,62.764,364.428,61.396,364.428,59.668z"/>
<path d="M376.164,64.852V54.484h1.584v1.512c0.36-0.72,0.792-1.224,1.08-1.44c0.36-0.216,0.72-0.36,1.152-0.36
	c0.576,0,1.224,0.216,1.8,0.576l-0.576,1.656c-0.432-0.288-0.864-0.36-1.296-0.36c-0.36,0-0.72,0.072-1.08,0.288
	c-0.288,0.288-0.504,0.576-0.648,1.008c-0.144,0.576-0.288,1.296-0.288,2.016v5.472H376.164z"/>
<path d="M389.916,61.468l1.872,0.216c-0.288,1.08-0.864,1.944-1.656,2.52c-0.72,0.576-1.728,0.864-2.952,0.864h-0.144v-1.44
	c0.072,0,0.144,0,0.144,0c0.648,0,1.224-0.216,1.656-0.504C389.34,62.764,389.7,62.26,389.916,61.468L389.916,61.468z
	 M387.036,54.196h0.072c1.368,0,2.52,0.504,3.384,1.44c0.864,0.936,1.296,2.304,1.296,3.96c0,0.144,0,0.288,0,0.504h-4.752v-1.44
	h2.952c-0.144-0.864-0.36-1.512-0.72-2.016c-0.504-0.648-1.296-1.008-2.16-1.008h-0.072V54.196z M387.036,65.068
	c-1.44-0.072-2.592-0.504-3.456-1.44c-0.864-0.936-1.296-2.232-1.296-3.888c0-1.728,0.432-3.096,1.296-4.104
	c0.936-0.936,2.088-1.44,3.456-1.44v1.44c-0.792,0.072-1.44,0.288-1.944,0.864c-0.576,0.504-0.864,1.224-0.936,2.16h2.88v1.44
	h-2.952c0.072,1.152,0.36,2.016,0.936,2.592c0.576,0.576,1.224,0.864,2.016,0.936V65.068z"/>
<path d="M393.228,61.756l1.8-0.288c0.072,0.648,0.36,1.224,0.792,1.584c0.432,0.36,1.08,0.576,1.872,0.576s1.368-0.216,1.8-0.504
	c0.36-0.36,0.576-0.72,0.576-1.152c0-0.432-0.144-0.72-0.504-0.936c-0.288-0.144-0.864-0.36-1.8-0.576
	c-1.296-0.36-2.232-0.648-2.664-0.864c-0.504-0.216-0.936-0.576-1.152-1.008c-0.288-0.432-0.432-0.864-0.432-1.368
	c0-0.504,0.144-0.936,0.36-1.296c0.216-0.432,0.504-0.72,0.864-1.008c0.288-0.144,0.648-0.36,1.08-0.504
	c0.504-0.144,1.008-0.216,1.584-0.216c0.792,0,1.512,0.144,2.088,0.36c0.648,0.216,1.08,0.576,1.368,0.936
	c0.288,0.432,0.504,0.936,0.648,1.656l-1.728,0.216c-0.072-0.504-0.36-0.936-0.72-1.224c-0.36-0.36-0.864-0.504-1.584-0.504
	c-0.792,0-1.368,0.144-1.728,0.432s-0.504,0.576-0.504,0.936c0,0.216,0.072,0.432,0.216,0.576c0.144,0.216,0.36,0.36,0.648,0.504
	c0.216,0.072,0.72,0.216,1.584,0.432c1.224,0.36,2.088,0.648,2.592,0.864c0.504,0.144,0.864,0.504,1.152,0.864
	c0.288,0.432,0.432,0.936,0.432,1.512c0,0.576-0.144,1.152-0.504,1.656c-0.36,0.504-0.864,0.936-1.512,1.224
	c-0.648,0.288-1.368,0.432-2.16,0.432c-1.368,0-2.376-0.288-3.096-0.864C393.876,63.628,393.444,62.836,393.228,61.756z"/>
<path d="M103.788,128.932v-12.456h1.944v1.872c0.432-0.864,0.936-1.44,1.296-1.728c0.432-0.288,0.864-0.432,1.368-0.432
	c0.72,0,1.44,0.216,2.16,0.648l-0.72,2.016c-0.504-0.36-1.008-0.504-1.512-0.504c-0.504,0-0.864,0.144-1.296,0.432
	c-0.36,0.288-0.576,0.648-0.72,1.152c-0.288,0.72-0.36,1.584-0.36,2.448v6.552H103.788z"/>
<path d="M111.78,128.932v-12.456h1.944v1.872c0.432-0.864,0.936-1.44,1.296-1.728c0.432-0.288,0.864-0.432,1.368-0.432
	c0.72,0,1.44,0.216,2.16,0.648l-0.72,2.016c-0.504-0.36-1.008-0.504-1.512-0.504s-0.864,0.144-1.296,0.432
	c-0.36,0.288-0.576,0.648-0.72,1.152c-0.288,0.72-0.36,1.584-0.36,2.448v6.552H111.78z"/>
<path d="M119.844,128.932v-17.208h2.088v6.192c1.008-1.152,2.232-1.728,3.744-1.728c0.936,0,1.728,0.144,2.376,0.504
	c0.72,0.36,1.152,0.864,1.44,1.512c0.288,0.648,0.504,1.584,0.504,2.808v7.92h-2.16v-7.92c0-1.08-0.216-1.8-0.648-2.304
	c-0.504-0.504-1.152-0.72-1.944-0.72c-0.648,0-1.224,0.144-1.8,0.504c-0.504,0.288-0.936,0.72-1.152,1.296s-0.36,1.368-0.36,2.304
	v6.84H119.844z"/>
<path d="M133.164,128.932v-17.208h2.088v6.192c1.008-1.152,2.232-1.728,3.744-1.728c0.936,0,1.728,0.144,2.448,0.504
	c0.648,0.36,1.152,0.864,1.44,1.512c0.288,0.648,0.432,1.584,0.432,2.808v7.92h-2.088v-7.92c0-1.08-0.288-1.8-0.72-2.304
	c-0.432-0.504-1.08-0.72-1.944-0.72c-0.648,0-1.224,0.144-1.728,0.504c-0.576,0.288-0.936,0.72-1.224,1.296
	c-0.216,0.576-0.36,1.368-0.36,2.304v6.84H133.164z"/>
<path d="M158.508,126.988c-0.504,0.576-1.008,1.08-1.656,1.44c-0.216,0.072-0.36,0.144-0.576,0.216v-1.584
	c0.144-0.072,0.288-0.144,0.504-0.216c0.432-0.288,0.936-0.648,1.368-1.224c0.432-0.504,0.792-1.152,1.08-1.944
	s0.432-1.584,0.432-2.376c0-1.08-0.288-1.872-0.792-2.448c-0.504-0.576-1.152-0.936-1.944-0.936c-0.216,0-0.432,0.072-0.648,0.144
	v-1.8c0.144-0.072,0.36-0.072,0.504-0.072c0.72,0,1.368,0.216,1.944,0.576c0.648,0.36,1.152,0.864,1.584,1.584l0.432-1.8h2.088
	l-1.728,7.848c-0.216,1.08-0.288,1.728-0.288,1.8c0,0.216,0.072,0.432,0.216,0.576s0.36,0.216,0.576,0.216
	c0.432,0,0.936-0.216,1.656-0.72c0.864-0.648,1.584-1.44,2.088-2.52c0.504-1.008,0.792-2.088,0.792-3.24
	c0-1.296-0.36-2.52-1.008-3.672c-0.648-1.08-1.656-2.016-3.024-2.664c-1.296-0.72-2.736-1.08-4.392-1.08
	c-0.504,0-0.936,0.072-1.44,0.144v-1.728c0.504-0.072,1.008-0.072,1.584-0.072c1.944,0,3.672,0.36,5.184,1.152
	c1.584,0.792,2.808,2.016,3.672,3.528c0.792,1.368,1.152,2.88,1.152,4.464c0,2.232-0.792,4.248-2.376,5.976
	c-1.44,1.584-3.024,2.376-4.68,2.376c-0.576,0-1.008-0.072-1.296-0.216c-0.36-0.144-0.576-0.432-0.72-0.72
	C158.652,127.78,158.58,127.492,158.508,126.988L158.508,126.988z M156.276,132.1c0.576,0.072,1.152,0.144,1.8,0.144
	c2.016,0,3.744-0.36,5.112-1.08c1.368-0.648,2.448-1.512,3.096-2.448h2.16c-0.432,0.792-1.08,1.656-2.088,2.448
	c-0.936,0.864-2.088,1.584-3.456,2.016c-1.296,0.504-2.952,0.792-4.824,0.792c-0.576,0-1.224-0.072-1.8-0.072V132.1z
	 M156.276,128.644c-0.432,0.216-0.864,0.288-1.296,0.288c-0.72,0-1.44-0.216-2.088-0.576c-0.648-0.432-1.152-1.08-1.584-1.872
	c-0.432-0.864-0.576-1.8-0.576-2.808c0-1.224,0.288-2.448,0.936-3.744c0.648-1.224,1.44-2.16,2.376-2.808
	c0.72-0.504,1.512-0.792,2.232-0.864v1.8c-0.288,0-0.504,0.144-0.72,0.288c-0.504,0.216-0.864,0.648-1.296,1.224
	c-0.432,0.576-0.792,1.224-1.008,2.016c-0.288,0.792-0.36,1.584-0.36,2.232c0,1.08,0.216,1.872,0.72,2.52
	c0.504,0.576,1.08,0.864,1.8,0.864c0.288,0,0.576-0.072,0.864-0.144V128.644L156.276,128.644z M156.276,113.236v-1.728
	c-1.8,0.144-3.456,0.72-4.824,1.584c-1.728,1.152-3.096,2.736-4.032,4.896c-0.792,1.728-1.152,3.528-1.152,5.4
	c0,1.728,0.288,3.312,0.936,4.824c0.576,1.152,1.296,2.16,2.376,3.096c1.008,0.864,2.232,1.512,3.744,2.016
	c0.936,0.216,1.872,0.432,2.952,0.576v-1.8c-1.224-0.144-2.376-0.432-3.456-0.864c-1.584-0.648-2.736-1.656-3.6-3.096
	c-0.864-1.368-1.224-3.024-1.224-4.896s0.36-3.528,1.224-5.184c0.864-1.584,2.016-2.808,3.528-3.672
	C153.828,113.812,154.98,113.38,156.276,113.236z"/>
<path d="M171.396,128.932v-10.8h-1.872v-1.656h1.872v-1.368c0-0.792,0.072-1.44,0.216-1.8c0.216-0.576,0.576-1.008,1.08-1.368
	s1.224-0.504,2.16-0.504c0.576,0,1.224,0.072,1.944,0.216l-0.288,1.8c-0.432-0.072-0.864-0.072-1.296-0.072
	c-0.576,0-1.08,0.144-1.296,0.432c-0.288,0.216-0.432,0.72-0.432,1.512v1.152h2.448v1.656h-2.448v10.8H171.396z"/>
<path d="M182.628,116.188L182.628,116.188c1.656,0,3.096,0.576,4.176,1.656c1.08,1.152,1.656,2.664,1.656,4.68
	c0,1.584-0.288,2.88-0.72,3.744c-0.504,0.936-1.224,1.656-2.16,2.16c-0.864,0.504-1.872,0.792-2.952,0.792l0,0v-1.8l0,0
	c1.008,0,1.872-0.36,2.592-1.152c0.72-0.792,1.008-2.016,1.008-3.672c0-1.512-0.288-2.664-1.008-3.456
	c-0.72-0.792-1.584-1.224-2.592-1.224l0,0V116.188z M176.796,122.668c0-2.304,0.576-4.032,1.872-5.112
	c1.08-0.936,2.376-1.368,3.96-1.368v1.728c-1.08,0-1.944,0.432-2.664,1.224c-0.648,0.792-1.008,1.944-1.008,3.528
	s0.36,2.808,1.008,3.6c0.72,0.792,1.584,1.152,2.664,1.152v1.8c-1.8-0.072-3.168-0.576-4.248-1.728
	C177.3,126.412,176.796,124.756,176.796,122.668z"/>
<path d="M190.908,128.932v-12.456h1.872v1.872c0.504-0.864,0.936-1.44,1.368-1.728c0.36-0.288,0.864-0.432,1.296-0.432
	c0.72,0,1.44,0.216,2.16,0.648l-0.72,2.016c-0.504-0.36-1.008-0.504-1.512-0.504s-0.864,0.144-1.224,0.432
	c-0.36,0.288-0.648,0.648-0.792,1.152c-0.288,0.72-0.36,1.584-0.36,2.448v6.552H190.908z"/>
<polygon points="198.9,128.932 198.9,111.724 200.988,111.724 200.988,121.516 206.028,116.476 208.764,116.476 204.012,121.084 
	209.196,128.932 206.604,128.932 202.5,122.524 200.988,123.964 200.988,128.932 "/>
<path d="M213.156,128.932l-3.744-12.456h2.16l1.944,7.2l0.792,2.664c0-0.144,0.216-1.008,0.648-2.592l1.944-7.272h2.088l1.872,7.2
	l0.648,2.376l0.72-2.376l2.088-7.2h2.088l-3.888,12.456h-2.232l-1.872-7.488l-0.504-2.088l-2.52,9.576H213.156z"/>
<path d="M233.172,116.188L233.172,116.188c1.728,0,3.168,0.576,4.248,1.656c1.08,1.152,1.584,2.664,1.584,4.68
	c0,1.584-0.216,2.88-0.72,3.744c-0.432,0.936-1.152,1.656-2.088,2.16c-0.936,0.504-1.872,0.792-3.024,0.792l0,0v-1.8l0,0
	c1.08,0,1.944-0.36,2.664-1.152c0.648-0.792,1.008-2.016,1.008-3.672c0-1.512-0.36-2.664-1.008-3.456
	c-0.72-0.792-1.584-1.224-2.664-1.224l0,0V116.188z M227.34,122.668c0-2.304,0.648-4.032,1.944-5.112
	c1.08-0.936,2.376-1.368,3.888-1.368v1.728c-1.008,0-1.872,0.432-2.592,1.224c-0.72,0.792-1.008,1.944-1.008,3.528
	s0.288,2.808,1.008,3.6c0.72,0.792,1.584,1.152,2.592,1.152v1.8c-1.728-0.072-3.096-0.576-4.176-1.728
	C227.916,126.412,227.34,124.756,227.34,122.668z"/>
<path d="M241.452,128.932v-12.456h1.944v1.872c0.432-0.864,0.936-1.44,1.296-1.728c0.432-0.288,0.864-0.432,1.368-0.432
	c0.72,0,1.44,0.216,2.16,0.648l-0.72,2.016c-0.504-0.36-1.008-0.504-1.512-0.504c-0.504,0-0.864,0.144-1.296,0.432
	c-0.36,0.288-0.576,0.648-0.72,1.152c-0.288,0.72-0.36,1.584-0.36,2.448v6.552H241.452z"/>
<polygon points="249.516,128.932 249.516,111.724 251.604,111.724 251.604,121.516 256.644,116.476 259.308,116.476 
	254.556,121.084 259.812,128.932 257.22,128.932 253.116,122.524 251.604,123.964 251.604,128.932 "/>
<path d="M260.676,125.188l2.088-0.36c0.072,0.864,0.432,1.512,0.936,1.944c0.576,0.432,1.296,0.648,2.232,0.648
	c1.008,0,1.728-0.144,2.16-0.576c0.504-0.36,0.72-0.864,0.72-1.368s-0.216-0.864-0.648-1.152c-0.288-0.144-1.008-0.432-2.088-0.72
	c-1.584-0.36-2.664-0.72-3.24-1.008c-0.576-0.288-1.08-0.648-1.368-1.152c-0.288-0.504-0.432-1.08-0.432-1.656
	s0.072-1.08,0.36-1.584c0.216-0.432,0.576-0.864,1.008-1.152c0.36-0.216,0.792-0.432,1.368-0.648c0.576-0.144,1.152-0.216,1.8-0.216
	c1.008,0,1.872,0.144,2.592,0.432c0.72,0.288,1.296,0.648,1.656,1.152c0.36,0.432,0.576,1.08,0.72,1.872l-2.088,0.288
	c-0.072-0.648-0.36-1.152-0.792-1.512c-0.432-0.36-1.08-0.504-1.944-0.504c-0.936,0-1.656,0.144-2.016,0.504
	c-0.432,0.288-0.648,0.648-0.648,1.08c0,0.288,0.072,0.504,0.216,0.792c0.216,0.216,0.504,0.36,0.864,0.504
	c0.216,0.072,0.792,0.288,1.872,0.576c1.44,0.36,2.52,0.72,3.096,0.936c0.576,0.288,1.08,0.648,1.368,1.152
	c0.36,0.504,0.504,1.08,0.504,1.8c0,0.72-0.216,1.368-0.576,1.944c-0.432,0.648-1.008,1.152-1.8,1.44
	c-0.792,0.36-1.656,0.576-2.592,0.576c-1.656,0-2.88-0.36-3.744-1.008C261.396,127.492,260.892,126.484,260.676,125.188z"/>
<rect x="274.068" y="126.484" width="2.448" height="2.448"/>
<path d="M288.252,124.324l2.088,0.288c-0.216,1.44-0.792,2.52-1.728,3.384c-0.936,0.792-2.088,1.224-3.456,1.224
	c-1.656,0-3.024-0.576-4.104-1.728c-1.008-1.08-1.512-2.664-1.512-4.752c0-1.368,0.216-2.52,0.648-3.528
	c0.432-1.008,1.152-1.8,2.016-2.304c0.936-0.504,1.944-0.72,2.952-0.72c1.368,0,2.52,0.36,3.384,1.008
	c0.792,0.72,1.368,1.656,1.656,2.952l-2.088,0.288c-0.216-0.864-0.504-1.44-1.008-1.872s-1.152-0.648-1.8-0.648
	c-1.08,0-1.944,0.36-2.592,1.152c-0.72,0.72-1.008,1.944-1.008,3.6c0,1.656,0.288,2.88,0.936,3.672c0.648,0.72,1.512,1.08,2.52,1.08
	c0.864,0,1.512-0.216,2.088-0.72C287.82,126.196,288.108,125.404,288.252,124.324z"/>
<path d="M297.18,116.188L297.18,116.188c1.728,0,3.168,0.576,4.248,1.656c1.08,1.152,1.584,2.664,1.584,4.68
	c0,1.584-0.216,2.88-0.72,3.744c-0.432,0.936-1.152,1.656-2.088,2.16c-0.936,0.504-1.872,0.792-3.024,0.792l0,0v-1.8l0,0
	c1.08,0,1.944-0.36,2.664-1.152c0.648-0.792,1.008-2.016,1.008-3.672c0-1.512-0.36-2.664-1.008-3.456
	c-0.72-0.792-1.584-1.224-2.664-1.224l0,0V116.188z M291.348,122.668c0-2.304,0.648-4.032,1.944-5.112
	c1.08-0.936,2.376-1.368,3.888-1.368v1.728c-1.008,0-1.872,0.432-2.592,1.224c-0.72,0.792-1.008,1.944-1.008,3.528
	s0.288,2.808,1.008,3.6c0.72,0.792,1.584,1.152,2.592,1.152v1.8c-1.728-0.072-3.096-0.576-4.176-1.728
	C291.924,126.412,291.348,124.756,291.348,122.668z"/>
<path d="M305.532,128.932v-12.456h1.872v1.728c0.36-0.576,0.936-1.08,1.584-1.44c0.648-0.432,1.368-0.576,2.16-0.576
	c0.936,0,1.728,0.216,2.304,0.576c0.576,0.36,1.008,0.936,1.224,1.584c1.008-1.44,2.304-2.16,3.888-2.16
	c1.224,0,2.16,0.36,2.808,1.008c0.648,0.72,1.008,1.728,1.008,3.168v8.568h-2.088v-7.848c0-0.864-0.072-1.44-0.216-1.872
	c-0.144-0.36-0.36-0.648-0.72-0.864c-0.36-0.216-0.792-0.36-1.296-0.36c-0.864,0-1.584,0.288-2.16,0.864
	c-0.576,0.576-0.864,1.512-0.864,2.808v7.272h-2.16v-8.136c0-0.936-0.144-1.584-0.504-2.088c-0.36-0.432-0.864-0.72-1.656-0.72
	c-0.576,0-1.152,0.144-1.656,0.504c-0.504,0.288-0.864,0.72-1.08,1.368c-0.216,0.576-0.36,1.44-0.36,2.592v6.48H305.532z"/>
</svg>
